<svg xmlns="http://www.w3.org/2000/svg" viewBox="0 0 485.34 74.02"><defs><style>.cls-1{fill:#2a2f38;}</style></defs><g id="Layer_2" data-name="Layer 2"><g id="Layer_1-2" data-name="Layer 1"><path class="cls-1" d="M24.21,47.73V74H0V0H41.09Q61.43,0,61.43,14.3V33.44q0,11-11.9,13.49L65.86,74h-26L25.73,47.73Zm9.55-33.32H24.21V34h9.55c2.3,0,3.46-.84,3.46-2.53V17C37.22,15.26,36.06,14.41,33.76,14.41Z"/><path class="cls-1" d="M195.35,16.49h2.49q18.41,0,18.4,14.29V74H192.72V33.44c0-1.69-1.15-2.54-3.45-2.54h-2.36q-3.74,0-3.73,3.46V74H159.66V33.44c0-1.69-1.16-2.54-3.46-2.54h-2.35q-3.73,0-3.74,3.46V74H126.59V16.49H149.7v7.38q1.94-7.38,12.59-7.38h2.49q12.87,0,16.88,7.26a9.28,9.28,0,0,1,4.84-5.3A18.76,18.76,0,0,1,195.35,16.49Z"/><path class="cls-1" d="M256,16.49h23.11V74H255.54v-4.1c-2.81,2.54-5.81,4.1-12.18,4.1h-2.49q-18.41,0-18.4-14.3V30.78q0-14.3,18.4-14.29h2.49c7.1,0,9.85,2.05,12.59,4.7Zm-6.5,43.12h2.35q3.73,0,3.74-3.46V34.36q0-3.47-3.74-3.46h-2.35c-2.31,0-3.46.85-3.46,2.54V57.07C246,58.76,247.14,59.61,249.45,59.61Z"/><path class="cls-1" d="M322.64,15.91h2.07V33h-7.88q-8.71,0-8.72,7.84V74H284.59V16.49H307.7v4.26C311.68,16.94,318.58,15.91,322.64,15.91Z"/><path class="cls-1" d="M314.34,74V55.11h23.79V74Z"/><path class="cls-1" d="M365.25,74H343.67V0h26.42l14.39,39.55L398.87,0H425.3V74H403.85V27L392.78,58h-16.6L365.25,27.21Z"/><path class="cls-1" d="M455,59.61h30.3V74H430.83V0H484.1V14.41H455V29.52h25V43.93H455Z"/><path class="cls-1" d="M117.19,20.18q-4.57-3.69-15.08-3.69H84.53q-10.52,0-15.08,3.69t-4.56,10.6V59.72q0,6.91,4.56,10.61T84.53,74h17.58q10.5,0,15.08-3.69t4.56-10.61V30.78Q121.75,23.87,117.19,20.18ZM97.77,53l-6.21,9.61H88.87V49.15h8.9Zm0-11.25h-8.9V32.21h8.9Z"/></g></g></svg>